<svg id="Capa_1" data-name="Capa 1" xmlns="http://www.w3.org/2000/svg" xmlns:xlink="http://www.w3.org/1999/xlink" viewBox="0 0 24 24"><defs><style>.cls-1{filter:url(#filter-2);}.cls-2{fill:#fff;}</style><filter id="filter-2" x="-4.2" y="-5.66" width="108.3" height="116.7" name="filter-2"><feOffset result="shadowOffsetOuter1" dy="2" in="SourceAlpha"/><feColorMatrix values="0 0 0 0 0.97 0 0 0 0 0.79 0 0 0 0 0.95 0 0 0 1 0" in="shadowOffsetOuter1"/></filter></defs><title>arrow_white</title><g id="Page-1"><g id="gifOS_captura_7_exito" data-name="gifOS captura 7 exito"><g id="nav-bar"><g id="arrow"><g class="cls-1"><path id="path-1" class="cls-2" d="M2.67,9.46H5.33v2.66H24v2.67H5.33v2.67H2.67V14.79H0V12.12H2.67ZM8,9.46H5.33V6.79H8Zm2.67-2.67H8V4.12h2.67Zm2.66-2.67H10.67V1.46h2.66Zm-8,16V17.46H8v2.66ZM8,22.79V20.12h2.67v2.67Zm2.67,2.67V22.79h2.66v2.67Z" transform="translate(0 -1.46)"/></g><path id="path-1-2" data-name="path-1" class="cls-2" d="M2.67,9.46H5.33v2.66H24v2.67H5.33v2.67H2.67V14.79H0V12.12H2.67ZM8,9.46H5.33V6.79H8Zm2.67-2.67H8V4.12h2.67Zm2.66-2.67H10.67V1.46h2.66Zm-8,16V17.46H8v2.66ZM8,22.79V20.12h2.67v2.67Zm2.67,2.67V22.79h2.66v2.67Z" transform="translate(0 -1.46)"/></g></g></g></g></svg>